<svg width="59" height="35" viewBox="0 0 59 35" fill="none" xmlns="http://www.w3.org/2000/svg">
<path d="M38.824 33.664C38.824 33.984 38.504 34.144 37.864 34.144H37.528C36.824 34.144 35.576 34.128 33.784 34.096C32.024 34.064 30.712 34.048 29.848 34.048C29.496 34.048 28.76 34.064 27.64 34.096C26.552 34.096 25.08 34.096 23.224 34.096H22.024C21.576 34.096 21.352 33.952 21.352 33.664C21.352 33.376 21.576 33.232 22.024 33.232L23.656 33.28C25.128 33.312 26.024 33.056 26.344 32.512C26.44 32.352 26.488 31.392 26.488 29.632L26.44 3.616C25.416 6.272 24.072 10.496 22.408 16.288L18.232 30.976C17.72 32.768 17.304 33.664 16.984 33.664C16.632 33.664 16.312 33.216 16.024 32.32C15.928 32.032 14.904 28.96 12.952 23.104C12.216 20.896 10.216 14.704 6.952 4.528V29.344C6.952 30.784 6.968 31.648 7 31.936C7.032 32.192 7.176 32.416 7.432 32.608C7.912 33.024 8.728 33.216 9.88 33.184C11.032 33.152 11.608 33.328 11.608 33.712C11.608 33.936 11.368 34.048 10.888 34.048L6.616 33.952C5.88 33.92 5.032 33.936 4.072 34C2.792 34.064 1.928 34.096 1.48 34.096C0.808 34.096 0.472 33.952 0.472 33.664C0.472 33.408 0.744 33.28 1.288 33.28C2.568 33.28 3.336 33.264 3.592 33.232C4.584 33.104 5.16 32.736 5.32 32.128C5.416 31.744 5.464 30.944 5.464 29.728V6.832C5.464 4.272 5.304 2.784 4.984 2.368C4.696 1.92 3.56 1.696 1.576 1.696C1.064 1.696 0.808 1.552 0.808 1.264C0.808 0.943998 1.08 0.799998 1.624 0.831998L2.92 0.879997L11.992 0.831998C12.088 0.831998 12.264 0.847998 12.52 0.879997C15.24 9.744 17.544 17.104 19.432 22.96L25.912 0.831998H26.92L33.256 0.879997C33.352 0.879997 33.624 0.879997 34.072 0.879997C34.552 0.847998 34.984 0.831998 35.368 0.831998H37.576C38.216 0.831998 38.536 0.975998 38.536 1.264C38.536 1.584 38.344 1.728 37.96 1.696L36.856 1.648C35.512 1.584 34.6 1.712 34.12 2.032C33.672 2.352 33.448 2.976 33.448 3.904C33.448 4.16 33.464 4.72 33.496 5.584C33.528 6.448 33.544 10.464 33.544 17.632V31.024C33.544 32.176 33.832 32.848 34.408 33.04C35.016 33.2 35.896 33.264 37.048 33.232C38.232 33.2 38.824 33.344 38.824 33.664ZM58.4624 1.216C58.4624 1.44 58.3024 1.568 57.9824 1.6C56.2864 1.664 55.2144 1.856 54.7664 2.176C54.3504 2.496 53.8864 3.408 53.3744 4.912C53.1184 5.616 52.7344 6.688 52.2224 8.128C50.5264 12.832 47.7904 20.768 44.0144 31.936C43.5024 33.536 43.1344 34.336 42.9104 34.336C42.6224 34.336 42.3824 34.048 42.1904 33.472C41.7744 32.16 41.2464 30.672 40.6064 29.008C39.6464 26.416 38.3504 22.976 36.7184 18.688C36.0144 16.8 34.9264 14 33.4544 10.288C32.6544 8.272 31.8544 6.032 31.0544 3.568C30.6384 2.224 29.7744 1.568 28.4624 1.6L26.8784 1.648C26.4944 1.648 26.3024 1.504 26.3024 1.216C26.3024 0.927999 26.8784 0.783998 28.0304 0.783998L36.1424 0.831998C36.4944 0.831998 36.9264 0.831998 37.4384 0.831998C37.9824 0.799998 38.5904 0.783998 39.2624 0.783998H41.9504C42.5584 0.783998 42.8624 0.927999 42.8624 1.216C42.8624 1.472 42.3024 1.616 41.1824 1.648C39.3584 1.68 38.4464 1.968 38.4464 2.512C38.4464 2.576 38.7184 3.424 39.2624 5.056C41.6944 12.352 43.8384 18.32 45.6944 22.96C46.1104 21.936 46.8784 19.808 47.9984 16.576C48.2864 15.712 48.9584 13.76 50.0144 10.72C51.5184 6.336 52.2704 3.664 52.2704 2.704C52.2704 2.128 52.0304 1.792 51.5504 1.696C51.3584 1.664 50.6224 1.632 49.3424 1.6C48.7024 1.6 48.3824 1.44 48.3824 1.12C48.3824 0.831999 48.6064 0.688 49.0544 0.688H51.3104L52.9904 0.735999H54.2384C54.5584 0.735999 54.9264 0.719999 55.3424 0.688C55.7904 0.688 56.3024 0.688 56.8784 0.688H57.7424C58.2224 0.688 58.4624 0.863999 58.4624 1.216Z" fill="white"/>
</svg>
